<?xml version="1.0" encoding="UTF-8" standalone="no"?>
<!-- Created with Inkscape (http://www.inkscape.org/) -->

<svg
   width="200mm"
   height="180mm"
   viewBox="0 50 200 180"
   version="1.1"
   id="svg1"
   xml:space="preserve"
   inkscape:version="1.4 (e7c3feb100, 2024-10-09)"
   sodipodi:docname="alma.svg"
   xmlns:inkscape="http://www.inkscape.org/namespaces/inkscape"
   xmlns:sodipodi="http://sodipodi.sourceforge.net/DTD/sodipodi-0.dtd"
   xmlns="http://www.w3.org/2000/svg"
   xmlns:svg="http://www.w3.org/2000/svg"><sodipodi:namedview
     id="namedview1"
     pagecolor="#505050"
     bordercolor="#eeeeee"
     borderopacity="1"
     inkscape:showpageshadow="0"
     inkscape:pageopacity="0"
     inkscape:pagecheckerboard="0"
     inkscape:deskcolor="#505050"
     inkscape:document-units="mm"
     inkscape:zoom="0.71268238"
     inkscape:cx="396.38976"
     inkscape:cy="561.25984"
     inkscape:window-width="1920"
     inkscape:window-height="1011"
     inkscape:window-x="0"
     inkscape:window-y="0"
     inkscape:window-maximized="1"
     inkscape:current-layer="layer1" /><defs
     id="defs1"><rect
       x="290.45197"
       y="645.44882"
       width="197.84409"
       height="51.916535"
       id="rect9" /><rect
       x="301.67717"
       y="690.34961"
       width="166.9748"
       height="35.07874"
       id="rect4" /></defs><g
     inkscape:label="Layer 1"
     inkscape:groupmode="layer"
     id="layer1"><path
       id="path1"
       style="fill:#008080"
       d="m 103.57766,67.819116 c -2.7359,-0.07064 -5.459197,0.0112 -8.130773,0.250631 C 80.048753,69.449768 65.32967,76.36711 54.428719,87.346606 47.319887,94.50666 41.238876,104.10649 38.180098,112.99827 c -0.989094,2.87527 -1.161445,4.00813 -0.610815,4.01113 0.181901,0.001 1.402292,0.34678 2.711979,0.76791 1.309688,0.42113 2.451383,0.68804 2.537313,0.59324 0.08593,-0.0948 0.612092,-1.47279 1.169438,-3.06234 2.019025,-5.75825 6.373454,-13.58937 10.309965,-18.541507 2.264237,-2.84841 7.676322,-8.181102 10.324951,-10.174056 8.310704,-6.253368 17.558311,-10.195464 27.78125,-11.842688 4.16617,-0.671293 15.216671,-0.663806 19.268591,0.01344 9.80812,1.639285 19.13148,5.187252 27.00455,10.275859 0.86132,0.556703 1.69636,1.010107 1.8557,1.008207 0.15934,-0.0019 0.98896,-1.093499 1.84382,-2.426209 l 1.55443,-2.423107 -0.73846,-0.550354 c -2.93619,-2.186861 -11.10533,-6.456375 -15.74064,-8.226888 -7.34931,-2.807162 -15.66683,-4.389871 -23.87451,-4.601787 z m 68.18395,8.029484 c -0.11043,-0.04095 -0.29185,-0.02205 -0.57774,0.04548 -0.93656,0.221202 -11.6973,3.730364 -19.47427,6.350516 l -6.04666,2.037085 -0.8971,1.21543 c -0.96401,1.306593 -1.62505,3.162488 -4.10518,11.521261 -0.86139,2.903165 -1.74042,5.544432 -1.95336,5.869412 -0.93146,1.42159 -1.97812,1.85463 -7.54166,3.12229 -11.49329,2.61876 -12.16454,2.80888 -12.33568,3.49074 -0.1348,0.5371 0.28992,3.03864 0.61185,3.60391 0.0622,0.10914 0.2242,0.19844 0.36018,0.19844 0.65422,0 14.24248,-3.5496 14.93552,-3.90157 0.71442,-0.36282 7.8273,-5.12685 18.78542,-12.582177 2.18281,-1.485072 6.68926,-4.479744 10.01437,-6.654374 3.41536,-2.233642 6.13523,-4.19007 6.25182,-4.496883 0.29017,-0.763621 2.12235,-8.96836 2.12235,-9.50433 0,-0.173538 -0.0394,-0.274278 -0.14986,-0.315226 z m 10.4004,10.840165 c -0.43262,-0.432619 -18.50058,6.093823 -19.83135,7.163388 -0.54606,0.438879 -2.09653,1.699948 -3.44527,2.802412 -1.94222,1.587578 -9.52089,7.125355 -13.44104,9.821625 l -0.65267,0.44958 0.71055,0.014 c 0.39101,0.008 2.77226,-0.34751 5.29167,-0.7891 12.33495,-2.16197 12.32308,-2.16047 16.69975,-2.13217 l 4.18114,0.0269 7.26209,-2.40761 c 3.99405,-1.32405 7.26209,-2.50677 7.26209,-2.62826 0,-0.12149 -0.6846,-0.415921 -1.52135,-0.65474 -0.83674,-0.238818 -2.91856,-0.872691 -4.62608,-1.408183 l -3.10472,-0.973584 2.67167,-4.577498 c 1.46951,-2.517838 2.61412,-4.63607 2.54352,-4.70669 z m -7.19284,19.737295 c -1.00709,0.002 -15.06082,1.41506 -17.08062,1.71773 -0.50932,0.0763 -3.24775,0.37719 -6.08541,0.66817 -9.32687,0.95642 -12.46663,1.50756 -23.41563,4.11035 -3.4925,0.83024 -6.62763,1.56906 -6.96701,1.64176 -0.33937,0.0727 -0.68318,0.30422 -0.76378,0.51418 -0.19728,0.51409 0.35114,2.27635 0.92036,2.95744 l 0.46043,0.55087 5.42396,-1.3038 c 2.98318,-0.71698 8.18377,-1.86653 11.55692,-2.55436 l 6.13296,-1.25057 1.40766,0.99012 c 0.77419,0.54462 3.2461,2.29123 5.49321,3.88142 2.2471,1.59019 4.24983,2.89129 4.45037,2.89129 0.20054,0 3.65986,-0.83299 7.6879,-1.85156 14.7758,-3.73639 20.42098,-5.27903 20.42098,-5.58054 0,-0.12564 -1.92814,-1.83864 -4.28449,-3.80649 -3.95838,-3.30573 -4.36593,-3.57801 -5.35781,-3.57601 z m -58.83517,3.33623 c -0.11811,-0.073 -3.39415,0.66894 -7.28018,1.64848 -7.97381,2.00993 -8.32961,2.18952 -8.57157,4.33617 -0.0764,0.67738 0.002,1.43667 0.18397,1.77612 0.23236,0.43415 0.47048,0.55091 0.88987,0.43615 0.31496,-0.0862 3.90684,-0.99934 7.98142,-2.02882 4.07458,-1.02947 7.51156,-1.97251 7.6383,-2.09599 0.13032,-0.12697 0.0441,-0.77128 -0.19844,-1.48312 -0.23588,-0.69227 -0.4284,-1.52848 -0.4284,-1.85777 0,-0.32929 -0.0969,-0.65822 -0.21497,-0.73122 z m -18.173571,4.09381 -2.38125,1.80919 c -1.309687,0.99509 -2.531429,2.06126 -2.714563,2.36937 -0.183134,0.30811 -0.546052,0.56017 -0.806669,0.56017 -0.558714,0 -9.583067,2.25415 -10.832414,2.70578 -1.132266,0.40931 -0.702328,0.83541 0.784448,0.77721 0.623514,-0.0244 3.228115,-0.34018 5.788277,-0.70125 l 4.655013,-0.65629 1.879472,0.92604 c 1.033624,0.50921 2.716296,1.11452 3.739824,1.34566 1.66685,0.37642 1.834115,0.47108 1.601969,0.90485 -0.292411,0.54638 -0.373376,39.73942 -0.08268,40.03011 v 5.2e-4 c 0.09701,0.097 1.642636,0.17622 3.434936,0.17622 h 3.25871 l 0.0708,-6.81302 0.0708,-6.81302 h 3.30367 3.30367 l 1.06195,1.64589 c 0.58406,0.9052 2.52744,3.97106 4.3186,6.81302 l 3.25665,5.16713 h 3.68867 c 2.43755,0 3.68866,-0.0956 3.68866,-0.28215 0,-0.1553 -0.85436,-1.67335 -1.89859,-3.37344 -3.74973,-6.10486 -6.83266,-11.19065 -6.83266,-11.27115 0,-0.0451 0.78336,-0.46753 1.74098,-0.93896 7.53597,-3.70995 8.90057,-14.27089 2.71818,-21.03541 -1.45868,-1.59602 -4.34791,-3.17725 -6.54585,-3.58221 -0.78384,-0.14442 -5.01057,-0.2652 -9.39271,-0.2682 l -7.96747,-0.006 -0.70745,-0.99994 c -1.007121,-1.42466 -1.846142,-4.08072 -2.038123,-6.45129 z m -25.796875,1.5782 c -0.213366,-0.0124 -6.572463,14.90257 -10.710457,25.12094 -3.243683,8.00996 -3.909792,9.62082 -5.647201,13.65964 -1.942648,4.51592 -4.015259,9.55054 -4.015259,9.75289 0,0.0829 1.635969,0.1175 3.635954,0.077 l 3.636471,-0.0739 0.499711,-1.05833 c 0.274849,-0.58208 3.17085,-7.72583 6.435783,-15.875 3.264933,-8.14917 6.02115,-14.9037 6.12469,-15.00994 0.139324,-0.14295 7.221489,14.98056 8.157642,17.42013 0.112537,0.29327 -0.957976,0.37123 -5.921603,0.42943 l -6.059061,0.0708 2.195215,4.56665 2.195731,4.56665 1.970939,-1.4578 1.97094,-1.45779 h 3.146061 3.146061 l 1.947168,3.96875 1.946651,3.96875 h 3.784782 c 2.081601,0 3.784782,-0.0389 3.784782,-0.0868 0,-0.0479 -1.26179,-2.81613 -2.803963,-6.15157 C 88.416043,151.01169 84.44193,142.31596 81.43689,135.66045 74.040527,119.27911 72.280947,115.4413 72.163554,115.4343 Z m 45.874206,0.28887 c -0.0713,-0.0979 -16.30046,3.92198 -16.47135,4.07985 -0.263,0.24298 0.34176,1.59027 1.01699,2.2655 0.41792,0.41791 0.98158,0.75964 1.25212,0.75964 0.49654,0 8.68603,-1.86579 12.79767,-2.91558 1.2237,-0.31244 2.30429,-0.69591 2.40089,-0.85215 0.13615,-0.2203 -0.65429,-2.86782 -0.99632,-3.33726 z m 62.9884,6.62698 c -3.87988,0.11692 -6.74622,1.24349 -8.98343,3.50522 -4.05432,4.09874 -4.3373,10.49478 -0.64286,14.53709 1.51163,1.65396 3.3635,2.67732 9.63973,5.32888 4.39911,1.85853 5.25287,2.32559 6.66212,3.64164 1.08734,1.01545 1.56852,2.83976 1.15445,4.37751 -0.58452,2.17073 -2.29503,3.46754 -5.2927,4.01112 -4.57859,0.83026 -8.77727,-1.31873 -10.75283,-5.50354 l -0.78807,-1.66915 -1.04541,0.83096 c -2.10491,1.67278 -4.62194,4.04126 -4.62194,4.34909 0,0.58019 1.70258,2.89794 3.175,4.32221 1.73337,1.67669 5.41228,3.59099 7.9375,4.1305 2.31341,0.49424 6.10572,0.50203 8.16694,0.016 3.54739,-0.83624 6.71522,-2.94492 8.41344,-5.59966 1.27062,-1.98631 1.75614,-4.137 1.62729,-7.21093 -0.12825,-3.05976 -0.84701,-4.85309 -2.76779,-6.90655 -1.61967,-1.73156 -3.64815,-2.92144 -9.20098,-5.39915 -5.54368,-2.47363 -6.58728,-3.08008 -7.42642,-4.31499 -1.2657,-1.86264 -0.70599,-3.83673 1.37872,-4.86327 1.09514,-0.53932 1.65279,-0.62252 4.17443,-0.62218 3.49618,4.8e-4 4.38371,0.36792 6.42596,2.65927 l 1.32705,1.4888 2.67167,-2.1947 c 1.46945,-1.20726 2.67219,-2.29247 2.67219,-2.41122 0,-0.43017 -2.2791,-2.67401 -3.8654,-3.80597 -2.60397,-1.85816 -4.71387,-2.53998 -8.31267,-2.68563 -0.59674,-0.0241 -1.17172,-0.0281 -1.72599,-0.0114 z m -170.245939,0.47801 5.16e-4,15.67656 c 4.11e-4,8.62211 0.07899,17.91672 0.174667,20.65456 l 0.174149,4.9785 9.945646,-0.0992 c 9.40399,-0.0935 10.053322,-0.13131 11.922787,-0.69557 6.968863,-2.1034 11.318567,-6.5529 13.161987,-13.46378 0.604341,-2.26564 0.687134,-3.08762 0.686263,-6.80992 -0.0011,-4.70074 -0.423943,-6.90722 -1.945101,-10.15803 -2.063713,-4.41028 -4.874946,-7.13943 -8.925553,-8.66407 -3.082431,-1.16022 -5.961805,-1.41497 -16.001091,-1.41697 z m 137.189039,0 c -18.70364,0 -17.24943,-0.2114 -16.96899,2.47169 0.0905,0.8663 0.16485,2.21201 0.16485,2.99103 v 1.41645 h 6.61458 6.61459 l 0.004,16.6026 c 0.002,9.13143 0.0751,16.8705 0.16278,17.19792 0.15498,0.57832 0.25694,0.59531 3.56826,0.59531 h 3.40858 v -17.19792 -17.19791 h 6.65334 6.65334 l -0.14521,-3.15847 c -0.08,-1.73729 -0.22386,-3.28509 -0.31936,-3.43958 -0.1194,-0.19318 -5.24307,-0.28112 -16.41089,-0.28112 z m -130.045289,6.87917 6.01927,0.005 c 8.498671,0.006 10.532534,0.52804 13.000757,3.33209 2.3047,2.61828 3.384941,6.49587 3.122807,11.21069 -0.38463,6.91808 -3.117101,10.74565 -8.80308,12.33103 -1.150273,0.32073 -3.128476,0.47176 -7.452775,0.56896 l -5.886979,0.13229 V 143.4977 Z m 88.370829,0.26458 h 4.44211 c 6.48643,0 8.55368,0.69513 10.0552,3.38171 1.90414,3.40696 0.81446,7.84558 -2.30322,9.38185 -1.12028,0.55202 -1.63771,0.6049 -6.70398,0.6873 l -5.49011,0.0894 v -6.77013 z m -59.425309,34.95136 c -0.113085,-0.12322 -5.152966,2.04546 -5.497856,2.36574 -0.643643,0.59771 5.071969,9.71391 9.11779,14.54227 9.793627,11.68791 26.182741,20.5771 41.656888,22.595 1.7425,0.22723 3.52547,0.46503 3.962033,0.52813 0.436562,0.063 3.829849,0.0753 7.540624,0.0274 5.29643,-0.0683 7.43602,-0.20427 9.9534,-0.63303 8.23734,-1.40297 16.44744,-4.20361 22.6534,-7.72718 9.42873,-5.35337 15.79252,-10.83362 21.6364,-18.63349 1.45347,-1.93996 3.70055,-5.51336 3.70055,-5.88491 0,-0.10748 -0.52619,-0.47449 -1.16892,-0.81545 -0.64272,-0.34097 -1.7721,-1.01735 -2.50992,-1.50327 l -1.34152,-0.88367 -1.62885,2.42983 c -7.37176,10.99648 -16.14267,18.12251 -28.35951,23.04149 -18.24041,7.34431 -40.106589,5.74144 -56.493705,-4.14084 -9.3409,-5.63304 -17.692339,-14.37197 -22.062219,-23.08541 -0.583843,-1.16416 -1.105145,-2.1644 -1.158585,-2.2226 z m 24.491011,10.86342 c -0.09529,0.007 -0.174737,0.0863 -0.271818,0.23977 -0.008,0.0127 -0.0089,0.0226 -0.01654,0.0351 0.160156,-0.002 0.331541,0.009 0.507979,0.0274 0.01146,-0.0178 0.02225,-0.0358 0.03462,-0.0532 -0.03293,-0.056 -0.06605,-0.11189 -0.0987,-0.16847 -0.04861,-0.0224 -0.115215,-0.0837 -0.155546,-0.0806 z" /><text
       xml:space="preserve"
       transform="scale(0.26458333)"
       id="text9"
       style="font-style:normal;font-variant:normal;font-weight:600;font-stretch:normal;font-size:32px;line-height:1.6;font-family:'URW Gothic';-inkscape-font-specification:'URW Gothic Semi-Bold';text-align:start;writing-mode:lr-tb;direction:ltr;baseline-shift:baseline;white-space:pre;shape-inside:url(#rect9);fill:#008080"
       x="273.76016"
       y="0"
       inkscape:label="text9"><tspan
         x="337.66205"
         y="679.78562"
         id="tspan2"><tspan
           style="font-weight:bold;font-family:Cantarell;-inkscape-font-specification:'Cantarell Bold';text-align:center;baseline-shift:baseline;text-anchor:middle"
           id="tspan1">SCORE</tspan></tspan></text></g></svg>
